<svg xmlns="http://www.w3.org/2000/svg" viewBox="0 0 64 64" fill="none">
  <!-- Background circle -->
  <circle cx="32" cy="32" r="30" fill="#0f172a"/>
  <circle cx="32" cy="32" r="27" fill="#0f172a" stroke="#f59e0b" stroke-width="2"/>
  
  <!-- Gold coin ring -->
  <circle cx="32" cy="32" r="22" fill="none" stroke="#f59e0b" stroke-width="3"/>
  
  <!-- Family icon - center person -->
  <circle cx="32" cy="22" r="4" fill="#f59e0b"/>
  <path d="M26 38 L26 30 C26 27 28 25 30 25 L34 25 C36 25 38 27 38 30 L38 38" stroke="#f59e0b" stroke-width="2.5" fill="none" stroke-linecap="round"/>
  
  <!-- Left smaller person -->
  <circle cx="22" cy="27" r="2.5" fill="#fcd34d"/>
  <path d="M19 36 L19 32 C19 30 20 29 22 29 L22 29" stroke="#fcd34d" stroke-width="1.5" fill="none" stroke-linecap="round"/>
  
  <!-- Right smaller person -->
  <circle cx="42" cy="27" r="2.5" fill="#fcd34d"/>
  <path d="M45 36 L45 32 C45 30 44 29 42 29 L42 29" stroke="#fcd34d" stroke-width="1.5" fill="none" stroke-linecap="round"/>
  
  <!-- Rupee symbol at bottom -->
  <text x="27" y="50" font-family="Arial, sans-serif" font-size="14" font-weight="700" fill="#f59e0b">₹</text>
</svg>
